<mxfile host="Electron" agent="Mozilla/5.0 (Windows NT 10.0; Win64; x64) AppleWebKit/537.36 (KHTML, like Gecko) draw.io/26.0.16 Chrome/132.0.6834.196 Electron/34.2.0 Safari/537.36" version="26.0.16">
  <diagram name="1 oldal" id="h2JDVgfdgvONbQUswd1D">
    <mxGraphModel dx="2658" dy="1796" grid="1" gridSize="10" guides="1" tooltips="1" connect="1" arrows="1" fold="1" page="1" pageScale="1" pageWidth="1600" pageHeight="1200" math="0" shadow="0">
      <root>
        <mxCell id="0" />
        <mxCell id="1" parent="0" />
        <mxCell id="sDiZmK0-GXbGRwj9_HQh-4" style="rounded=0;orthogonalLoop=1;jettySize=auto;html=1;endArrow=classic;endFill=0;" edge="1" parent="1" source="sDiZmK0-GXbGRwj9_HQh-2" target="sDiZmK0-GXbGRwj9_HQh-3">
          <mxGeometry relative="1" as="geometry" />
        </mxCell>
        <mxCell id="sDiZmK0-GXbGRwj9_HQh-7" style="edgeStyle=none;shape=connector;rounded=0;orthogonalLoop=1;jettySize=auto;html=1;strokeColor=default;align=center;verticalAlign=middle;fontFamily=Helvetica;fontSize=11;fontColor=default;labelBackgroundColor=default;endArrow=classic;endFill=0;" edge="1" parent="1" source="sDiZmK0-GXbGRwj9_HQh-2" target="sDiZmK0-GXbGRwj9_HQh-6">
          <mxGeometry relative="1" as="geometry" />
        </mxCell>
        <mxCell id="sDiZmK0-GXbGRwj9_HQh-2" value="User clicks on the&lt;div&gt;menu button or presses the correct shortcutkey&lt;/div&gt;" style="rounded=1;whiteSpace=wrap;html=1;" vertex="1" parent="1">
          <mxGeometry x="320" y="50" width="120" height="60" as="geometry" />
        </mxCell>
        <mxCell id="sDiZmK0-GXbGRwj9_HQh-10" style="edgeStyle=none;shape=connector;rounded=0;orthogonalLoop=1;jettySize=auto;html=1;strokeColor=default;align=center;verticalAlign=middle;fontFamily=Helvetica;fontSize=11;fontColor=default;labelBackgroundColor=default;endArrow=classic;endFill=0;" edge="1" parent="1" source="sDiZmK0-GXbGRwj9_HQh-3" target="sDiZmK0-GXbGRwj9_HQh-9">
          <mxGeometry relative="1" as="geometry" />
        </mxCell>
        <mxCell id="sDiZmK0-GXbGRwj9_HQh-3" value="PouleCompetition" style="rounded=1;whiteSpace=wrap;html=1;" vertex="1" parent="1">
          <mxGeometry x="70" y="190" width="120" height="60" as="geometry" />
        </mxCell>
        <mxCell id="sDiZmK0-GXbGRwj9_HQh-17" style="edgeStyle=none;shape=connector;rounded=0;orthogonalLoop=1;jettySize=auto;html=1;strokeColor=default;align=center;verticalAlign=middle;fontFamily=Helvetica;fontSize=11;fontColor=default;labelBackgroundColor=default;endArrow=classic;endFill=0;" edge="1" parent="1" source="sDiZmK0-GXbGRwj9_HQh-6" target="sDiZmK0-GXbGRwj9_HQh-16">
          <mxGeometry relative="1" as="geometry" />
        </mxCell>
        <mxCell id="sDiZmK0-GXbGRwj9_HQh-6" value="Competition" style="rounded=1;whiteSpace=wrap;html=1;fontFamily=Helvetica;fontSize=11;fontColor=default;labelBackgroundColor=default;" vertex="1" parent="1">
          <mxGeometry x="540" y="190" width="120" height="60" as="geometry" />
        </mxCell>
        <mxCell id="sDiZmK0-GXbGRwj9_HQh-13" style="edgeStyle=none;shape=connector;rounded=0;orthogonalLoop=1;jettySize=auto;html=1;strokeColor=default;align=center;verticalAlign=middle;fontFamily=Helvetica;fontSize=11;fontColor=default;labelBackgroundColor=default;endArrow=classic;endFill=0;" edge="1" parent="1" source="sDiZmK0-GXbGRwj9_HQh-8" target="sDiZmK0-GXbGRwj9_HQh-12">
          <mxGeometry relative="1" as="geometry" />
        </mxCell>
        <mxCell id="sDiZmK0-GXbGRwj9_HQh-8" value="Poule editor appears" style="rounded=1;whiteSpace=wrap;html=1;fontFamily=Helvetica;fontSize=11;fontColor=default;labelBackgroundColor=default;" vertex="1" parent="1">
          <mxGeometry x="70" y="390" width="120" height="60" as="geometry" />
        </mxCell>
        <mxCell id="sDiZmK0-GXbGRwj9_HQh-11" style="edgeStyle=none;shape=connector;rounded=0;orthogonalLoop=1;jettySize=auto;html=1;strokeColor=default;align=center;verticalAlign=middle;fontFamily=Helvetica;fontSize=11;fontColor=default;labelBackgroundColor=default;endArrow=classic;endFill=0;" edge="1" parent="1" source="sDiZmK0-GXbGRwj9_HQh-9" target="sDiZmK0-GXbGRwj9_HQh-8">
          <mxGeometry relative="1" as="geometry" />
        </mxCell>
        <mxCell id="sDiZmK0-GXbGRwj9_HQh-9" value="Poule editor title is set to &quot;New Poule&quot;" style="rounded=1;whiteSpace=wrap;html=1;fontFamily=Helvetica;fontSize=11;fontColor=default;labelBackgroundColor=default;" vertex="1" parent="1">
          <mxGeometry x="70" y="290" width="120" height="60" as="geometry" />
        </mxCell>
        <mxCell id="sDiZmK0-GXbGRwj9_HQh-15" style="edgeStyle=none;shape=connector;rounded=0;orthogonalLoop=1;jettySize=auto;html=1;strokeColor=default;align=center;verticalAlign=middle;fontFamily=Helvetica;fontSize=11;fontColor=default;labelBackgroundColor=default;endArrow=classic;endFill=0;" edge="1" parent="1" source="sDiZmK0-GXbGRwj9_HQh-12" target="sDiZmK0-GXbGRwj9_HQh-14">
          <mxGeometry relative="1" as="geometry" />
        </mxCell>
        <mxCell id="sDiZmK0-GXbGRwj9_HQh-12" value="Competitors are selected" style="rounded=1;whiteSpace=wrap;html=1;fontFamily=Helvetica;fontSize=11;fontColor=default;labelBackgroundColor=default;" vertex="1" parent="1">
          <mxGeometry x="70" y="500" width="120" height="60" as="geometry" />
        </mxCell>
        <mxCell id="sDiZmK0-GXbGRwj9_HQh-19" style="edgeStyle=none;shape=connector;rounded=0;orthogonalLoop=1;jettySize=auto;html=1;strokeColor=default;align=center;verticalAlign=middle;fontFamily=Helvetica;fontSize=11;fontColor=default;labelBackgroundColor=default;endArrow=classic;endFill=0;" edge="1" parent="1" source="sDiZmK0-GXbGRwj9_HQh-14" target="sDiZmK0-GXbGRwj9_HQh-18">
          <mxGeometry relative="1" as="geometry" />
        </mxCell>
        <mxCell id="sDiZmK0-GXbGRwj9_HQh-14" value="Poules are generated and displayed" style="rounded=1;whiteSpace=wrap;html=1;fontFamily=Helvetica;fontSize=11;fontColor=default;labelBackgroundColor=default;" vertex="1" parent="1">
          <mxGeometry x="70" y="610" width="120" height="60" as="geometry" />
        </mxCell>
        <mxCell id="sDiZmK0-GXbGRwj9_HQh-26" style="edgeStyle=none;shape=connector;rounded=0;orthogonalLoop=1;jettySize=auto;html=1;strokeColor=default;align=center;verticalAlign=middle;fontFamily=Helvetica;fontSize=11;fontColor=default;labelBackgroundColor=default;endArrow=classic;endFill=0;" edge="1" parent="1" source="sDiZmK0-GXbGRwj9_HQh-16" target="sDiZmK0-GXbGRwj9_HQh-8">
          <mxGeometry relative="1" as="geometry" />
        </mxCell>
        <mxCell id="sDiZmK0-GXbGRwj9_HQh-16" value="Poule editor title is set to &quot;New Competition&quot;" style="rounded=1;whiteSpace=wrap;html=1;fontFamily=Helvetica;fontSize=11;fontColor=default;labelBackgroundColor=default;" vertex="1" parent="1">
          <mxGeometry x="540" y="290" width="120" height="60" as="geometry" />
        </mxCell>
        <mxCell id="sDiZmK0-GXbGRwj9_HQh-22" style="edgeStyle=none;shape=connector;rounded=0;orthogonalLoop=1;jettySize=auto;html=1;strokeColor=default;align=center;verticalAlign=middle;fontFamily=Helvetica;fontSize=11;fontColor=default;labelBackgroundColor=default;endArrow=classic;endFill=0;" edge="1" parent="1" source="sDiZmK0-GXbGRwj9_HQh-18" target="sDiZmK0-GXbGRwj9_HQh-21">
          <mxGeometry relative="1" as="geometry" />
        </mxCell>
        <mxCell id="sDiZmK0-GXbGRwj9_HQh-28" style="edgeStyle=none;shape=connector;rounded=0;orthogonalLoop=1;jettySize=auto;html=1;strokeColor=default;align=center;verticalAlign=middle;fontFamily=Helvetica;fontSize=11;fontColor=default;labelBackgroundColor=default;endArrow=classic;endFill=0;" edge="1" parent="1" source="sDiZmK0-GXbGRwj9_HQh-18" target="sDiZmK0-GXbGRwj9_HQh-27">
          <mxGeometry relative="1" as="geometry" />
        </mxCell>
        <mxCell id="sDiZmK0-GXbGRwj9_HQh-18" value="Poules are finished" style="rounded=1;whiteSpace=wrap;html=1;fontFamily=Helvetica;fontSize=11;fontColor=default;labelBackgroundColor=default;" vertex="1" parent="1">
          <mxGeometry x="70" y="710" width="120" height="60" as="geometry" />
        </mxCell>
        <mxCell id="sDiZmK0-GXbGRwj9_HQh-21" value="Competition ends" style="rounded=1;whiteSpace=wrap;html=1;fontFamily=Helvetica;fontSize=11;fontColor=default;labelBackgroundColor=default;" vertex="1" parent="1">
          <mxGeometry x="70" y="820" width="120" height="60" as="geometry" />
        </mxCell>
        <mxCell id="sDiZmK0-GXbGRwj9_HQh-30" style="edgeStyle=none;shape=connector;rounded=0;orthogonalLoop=1;jettySize=auto;html=1;strokeColor=default;align=center;verticalAlign=middle;fontFamily=Helvetica;fontSize=11;fontColor=default;labelBackgroundColor=default;endArrow=classic;endFill=0;" edge="1" parent="1" source="sDiZmK0-GXbGRwj9_HQh-27" target="sDiZmK0-GXbGRwj9_HQh-29">
          <mxGeometry relative="1" as="geometry" />
        </mxCell>
        <mxCell id="sDiZmK0-GXbGRwj9_HQh-27" value="Table appears" style="rounded=1;whiteSpace=wrap;html=1;fontFamily=Helvetica;fontSize=11;fontColor=default;labelBackgroundColor=default;" vertex="1" parent="1">
          <mxGeometry x="540" y="820" width="120" height="60" as="geometry" />
        </mxCell>
        <mxCell id="sDiZmK0-GXbGRwj9_HQh-32" style="edgeStyle=none;shape=connector;rounded=0;orthogonalLoop=1;jettySize=auto;html=1;strokeColor=default;align=center;verticalAlign=middle;fontFamily=Helvetica;fontSize=11;fontColor=default;labelBackgroundColor=default;endArrow=classic;endFill=0;" edge="1" parent="1" source="sDiZmK0-GXbGRwj9_HQh-29" target="sDiZmK0-GXbGRwj9_HQh-31">
          <mxGeometry relative="1" as="geometry" />
        </mxCell>
        <mxCell id="sDiZmK0-GXbGRwj9_HQh-29" value="Table is finished" style="rounded=1;whiteSpace=wrap;html=1;fontFamily=Helvetica;fontSize=11;fontColor=default;labelBackgroundColor=default;" vertex="1" parent="1">
          <mxGeometry x="540" y="920" width="120" height="60" as="geometry" />
        </mxCell>
        <mxCell id="sDiZmK0-GXbGRwj9_HQh-34" style="edgeStyle=none;shape=connector;rounded=0;orthogonalLoop=1;jettySize=auto;html=1;strokeColor=default;align=center;verticalAlign=middle;fontFamily=Helvetica;fontSize=11;fontColor=default;labelBackgroundColor=default;endArrow=classic;endFill=0;" edge="1" parent="1" source="sDiZmK0-GXbGRwj9_HQh-31" target="sDiZmK0-GXbGRwj9_HQh-33">
          <mxGeometry relative="1" as="geometry" />
        </mxCell>
        <mxCell id="sDiZmK0-GXbGRwj9_HQh-31" value="Data is put into the database" style="rounded=1;whiteSpace=wrap;html=1;fontFamily=Helvetica;fontSize=11;fontColor=default;labelBackgroundColor=default;" vertex="1" parent="1">
          <mxGeometry x="540" y="1020" width="120" height="60" as="geometry" />
        </mxCell>
        <mxCell id="sDiZmK0-GXbGRwj9_HQh-33" value="Competition ends" style="rounded=1;whiteSpace=wrap;html=1;fontFamily=Helvetica;fontSize=11;fontColor=default;labelBackgroundColor=default;" vertex="1" parent="1">
          <mxGeometry x="540" y="1120" width="120" height="60" as="geometry" />
        </mxCell>
      </root>
    </mxGraphModel>
  </diagram>
</mxfile>
